{
  "title": "Star.Trek.Beyond.2016.HDTS.HC.x264.AAC-iidvd",
  "uid": 15551126,
  "size": 795040285,
  "categoryP": "video",
  "categoryS": "movies",
  "magnet": "?xt=urn:btih:fca2ab571b048970758e86a09029d69d8e61283f&amp;dn=Star.Trek.Beyond.2016.HDTS.HC.x264.AAC-iidvd&amp;tr=udp%3A%2F%2Ftracker.leechers-paradise.org%3A6969&amp;tr=udp%3A%2F%2Fzer0day.ch%3A1337&amp;tr=udp%3A%2F%2Fopen.demonii.com%3A1337&amp;tr=udp%3A%2F%2Ftracker.coppersurfer.tk%3A6969&amp;tr=udp%3A%2F%2Fexodus.desync.com%3A6969",
  "seeders": 1547,
  "leechers": 181,
  "uploader": "SaM",
  "files": 2,
  "time": 1471025962,
  "description": "Format : MPEG-4\r\nFormat profile : Base Media\r\nCodec ID : isom\r\nFile size : 758 MiB\r\nDuration : 1h 53mn\r\nOverall bit rate mode : Variable\r\nOverall bit rate : 936 Kbps\r\nEncoded date : UTC 2016-08-09 14:30:05\r\nTagged date : UTC 2016-08-09 14:30:05\r\nWriting application : Lite MP4 Tool v2.3\r\n\r\nVideo\r\nID : 1\r\nFormat : AVC\r\nFormat/Info : Advanced Video Codec\r\nFormat profile :   \r\nFormat settings, CABAC : Yes\r\nFormat settings, ReFrames : 3 frames\r\nCodec ID : avc1\r\nCodec ID/Info : Advanced Video Coding\r\nDuration : 1h 53mn\r\nBit rate : 800 Kbps\r\nMaximum bit rate : 3 884 Kbps\r\nWidth : 720 pixels\r\nHeight : 410 pixels\r\nDisplay aspect ratio : 16:9\r\nFrame rate mode : Constant\r\nFrame rate : 23.976 fps\r\nColor space : YUV\r\nChroma subsampling : 4:2:0\r\nBit depth : 8 bits\r\nScan type : Progressive\r\nBits/(Pixel*Frame) : 0.113\r\nStream size : 652 MiB (86%)\r\nTitle : Imported with GPAC 0.4.6-DEV (internal rev. 5)\r\nWriting library : x264 core 80 r1376 3feaec2\r\n\r\n\r\nAudio\r\nID : 2\r\nFormat : AAC\r\nFormat/Info : Advanced Audio Codec\r\nFormat profile : LC\r\nCodec ID : 40\r\nDuration : 1h 53mn\r\nBit rate mode : Variable\r\nBit rate : 128 Kbps\r\nMaximum bit rate : 149 Kbps\r\nChannel count : 1 channel\r\nChannel positions : Front: C\r\nSampling rate : 44.1 KHz\r\nCompression mode : Lossy\r\nStream size : 104 MiB (14%)\r\nEncoded date : UTC 2016-08-09 14:30:18\r\nTagged date : UTC 2016-08-09 14:30:19\r\n \nhttp://extraimago.com/image/wswA \nhttp://extraimago.com/image/wswv \nhttp://extraimago.com/image/wswu \nhttp://extraimago.com/image/wswV \nhttp://extraimago.com/image/wsw6 \nhttp://extraimago.com/image/wswx",
  "parsed": {
    "xt": "urn:btih:fca2ab571b048970758e86a09029d69d8e61283f",
    "dn": "Star.Trek.Beyond.2016.HDTS.HC.x264.AAC-iidvd",
    "tr": [
      "udp://exodus.desync.com:6969",
      "udp://open.demonii.com:1337",
      "udp://tracker.coppersurfer.tk:6969",
      "udp://tracker.leechers-paradise.org:6969",
      "udp://zer0day.ch:1337"
    ],
    "infoHash": "fca2ab571b048970758e86a09029d69d8e61283f",
    "infoHashBuffer": {
      "type": "Buffer",
      "data": [
        252,
        162,
        171,
        87,
        27,
        4,
        137,
        112,
        117,
        142,
        134,
        160,
        144,
        41,
        214,
        157,
        142,
        97,
        40,
        63
      ]
    },
    "name": "Star.Trek.Beyond.2016.HDTS.HC.x264.AAC-iidvd",
    "announce": [
      "udp://exodus.desync.com:6969",
      "udp://open.demonii.com:1337",
      "udp://tracker.coppersurfer.tk:6969",
      "udp://tracker.leechers-paradise.org:6969",
      "udp://zer0day.ch:1337"
    ],
    "urlList": []
  },
  "previous": 1728,
  "peers": 354,
  "last_updated": "2016-12-25T18:53:37.946Z"
}